<svg xmlns="http://www.w3.org/2000/svg" viewBox="0 0 375 375">
  <rect x="-37.5" y="-37.5" width="450" height="450" fill="#0c0157"/>
  <circle cx="187.5" cy="188" r="165.7" fill="#ffc126"/>
  <path fill="#0c0157" d="
    M 274.49 281.98
    C 301.57 259.26 316.13 229.46 317.41 201.15
    L 247.26 188.81
    C 244.81 200.53 239.85 213.48 227.74 223.65
    C 207.62 240.53 180.12 240.76 160.21 217.01
    C 140.73 193.81 144.96 167.42 165.85 149.90
    C 178.49 139.29 192.73 137.43 204.93 137.31
    L 207.32 66.31
    C 177.98 60.62 145.15 69.70 116.52 93.73
    C 61.60 139.82 51.52 208.48 100.65 267.01
    C 149.76 325.56 219.57 328.07 274.49 281.98
    Z
  "/>
</svg>
